<svg height="512pt" viewBox="0 0 512 512" width="512pt" xmlns="http://www.w3.org/2000/svg" xmlns:xlink="http://www.w3.org/1999/xlink"><linearGradient id="a" gradientUnits="userSpaceOnUse" x1="0" x2="512" y1="256" y2="256"><stop offset="0" stop-color="#2af598"/><stop offset="1" stop-color="#009efd"/></linearGradient><path d="m464.152344 13.472656c-24.386719-8.6875-56.40625-13.472656-90.152344-13.472656s-65.765625 4.785156-90.152344 13.472656c-39.546875 14.089844-47.847656 34.1875-47.847656 48.566406v186.484376c-2.472656-1.042969-5.074219-2.0625-7.847656-3.050782-24.386719-8.6875-56.40625-13.472656-90.152344-13.472656-33.644531 0-65.734375 5.003906-90.359375 14.085938-39.375 14.519531-47.640625 34.675781-47.640625 49.027343 0 1.023438.046875 2.074219.140625 3.152344h-.140625v151.691406c0 14.378907 8.300781 34.480469 47.847656 48.566407 24.386719 8.691406 56.40625 13.476562 90.152344 13.476562s65.765625-4.785156 90.152344-13.472656c11.914062-4.246094 20.976562-9.039063 27.847656-14.054688 6.871094 5.015625 15.933594 9.808594 27.847656 14.054688 24.386719 8.6875 56.40625 13.472656 90.152344 13.472656s65.765625-4.785156 90.152344-13.472656c39.546875-14.089844 47.847656-34.1875 47.847656-48.566406v-387.921876c0-14.378906-8.300781-34.476562-47.847656-48.566406zm7.847656 124.40625c-1.683594 2.316406-9.152344 8.492188-27.671875 14.0625-19.417969 5.839844-44.390625 9.058594-70.328125 9.058594s-50.910156-3.21875-70.328125-9.058594c-18.519531-5.574218-25.988281-11.746094-27.671875-14.0625v-30.320312c2.472656 1.042968 5.074219 2.0625 7.847656 3.050781 24.386719 8.6875 56.40625 13.472656 90.152344 13.472656s65.765625-4.785156 90.152344-13.472656c2.769531-.988281 5.375-2.007813 7.847656-3.050781zm0 77.039063c-1.683594 2.320312-9.152344 8.492187-27.671875 14.0625-19.417969 5.84375-44.390625 9.058593-70.328125 9.058593s-50.910156-3.214843-70.328125-9.058593c-18.519531-5.570313-25.988281-11.746094-27.671875-14.0625v-30.441407c2.472656 1.042969 5.074219 2.0625 7.847656 3.050782 24.386719 8.6875 56.40625 13.472656 90.152344 13.472656s65.765625-4.785156 90.152344-13.472656c2.769531-.988282 5.375-2.007813 7.847656-3.050782zm0 78.808593c-1.683594 2.316407-9.152344 8.492188-27.671875 14.0625-19.417969 5.839844-44.390625 9.058594-70.328125 9.058594s-50.910156-3.21875-70.328125-9.058594c-18.519531-5.574218-25.988281-11.746093-27.671875-14.0625v-32.210937c2.472656 1.042969 5.074219 2.0625 7.847656 3.050781 24.386719 8.691406 56.40625 13.476563 90.152344 13.476563s65.765625-4.785157 90.152344-13.476563c2.769531-.988281 5.375-2.007812 7.847656-3.050781zm0 77.96875c-1.683594 2.316407-9.152344 8.492188-27.671875 14.0625-19.417969 5.839844-44.390625 9.058594-70.328125 9.058594s-50.910156-3.21875-70.328125-9.058594c-18.519531-5.574218-25.988281-11.746093-27.671875-14.0625v-31.375c2.472656 1.042969 5.074219 2.066407 7.847656 3.050782 24.386719 8.691406 56.40625 13.476562 90.152344 13.476562s65.765625-4.785156 90.152344-13.476562c2.769531-.984375 5.375-2.007813 7.847656-3.050782zm-432-31.066406c2.472656 1.042969 5.074219 2.0625 7.847656 3.050782 24.386719 8.6875 56.40625 13.472656 90.152344 13.472656 33.644531 0 65.734375-5 90.359375-14.082032 2.695313-.996093 5.230469-2.015624 7.640625-3.058593v31.867187c-1.773438 2.292969-9.332031 8.253906-27.761719 13.546875-19.277343 5.535157-44.222656 8.585938-70.238281 8.585938s-50.960938-3.050781-70.238281-8.585938c-18.429688-5.292969-25.988281-11.253906-27.761719-13.546875zm263.671875-291.570312c19.417969-5.839844 44.390625-9.058594 70.328125-9.058594s50.910156 3.21875 70.328125 9.058594c16.125 4.851562 23.871094 10.160156 26.71875 12.980468-2.847656 2.824219-10.59375 8.132813-26.71875 12.984376-19.417969 5.839843-44.390625 9.058593-70.328125 9.058593s-50.910156-3.21875-70.328125-9.058593c-16.125-4.851563-23.871094-10.160157-26.71875-12.984376 2.847656-2.820312 10.59375-8.128906 26.71875-12.980468zm-236.085937 232.476562c19.546874-6.148437 44.550781-9.535156 70.414062-9.535156 25.9375 0 50.910156 3.21875 70.328125 9.058594 16.242187 4.886718 23.988281 10.238281 26.78125 13.046875-2.746094 2.875-10.433594 8.398437-26.695313 13.515625-19.546874 6.148437-44.550781 9.53125-70.414062 9.53125-25.9375 0-50.910156-3.214844-70.328125-9.058594-16.242187-4.886719-23.988281-10.238281-26.78125-13.042969 2.746094-2.878906 10.433594-8.402343 26.695313-13.515625zm140.742187 181.40625c-19.417969 5.839844-44.390625 9.058594-70.328125 9.058594s-50.910156-3.21875-70.328125-9.058594c-18.511719-5.570312-25.984375-11.742187-27.671875-14.0625v-30.769531c2.535156 1.039063 5.210938 2.054687 8.0625 3.035156 24.132812 8.296875 56.074219 12.863281 89.9375 12.863281s65.808594-4.566406 89.9375-12.863281c2.851562-.980469 5.527344-1.996093 8.0625-3.035156v30.769531c-1.6875 2.320313-9.160156 8.492188-27.671875 14.0625zm236 0c-19.417969 5.839844-44.390625 9.058594-70.328125 9.058594s-50.910156-3.21875-70.328125-9.058594c-18.511719-5.570312-25.980469-11.742187-27.671875-14.0625v-30.589844c2.472656 1.046876 5.074219 2.066407 7.847656 3.054688 24.386719 8.6875 56.40625 13.472656 90.152344 13.472656s65.765625-4.785156 90.152344-13.472656c2.769531-.988281 5.375-2.007812 7.847656-3.054688v30.589844c-1.6875 2.320313-9.160156 8.492188-27.671875 14.0625zm-367.183594-359.800781-28.289062-28.28125 74.140625-74.144531 74.144531 74.140625-28.28125 28.285156-25.859375-25.855469v114.714844h-40v-114.71875zm0 0" fill="url(#a)"/></svg>