<svg xmlns="http://www.w3.org/2000/svg" viewBox="0 0 20 20">
<path d="M19.65 17.977l-3.843-3.844a8.734 8.734 0 001.804-5.326 8.748 8.748 0 00-2.58-6.227A8.748 8.748 0 008.804 0a8.749 8.749 0 00-6.226 2.58c-3.434 3.434-3.434 9.02 0 12.454a8.748 8.748 0 006.226 2.579c1.952 0 3.802-.64 5.327-1.804l3.843 3.844a1.18 1.18 0 001.676 0 1.185 1.185 0 000-1.676zm-15.397-4.62a6.444 6.444 0 010-9.101A6.395 6.395 0 018.804 2.37c1.72 0 3.336.67 4.551 1.885a6.394 6.394 0 011.885 4.55c0 1.72-.67 3.336-1.885 4.552a6.394 6.394 0 01-4.55 1.885 6.394 6.394 0 01-4.552-1.886z"></path>
</svg>